<svg xmlns="http://www.w3.org/2000/svg" xmlns:xlink="http://www.w3.org/1999/xlink" xml:lang="en" height="383.6pt" width="1216.4959999999999pt" viewBox="-102.01599999999999 -172.00000000000003 1216.4959999999999 383.6"><path d="M 0.0,-0.0 L 18.0,-0.0 L 27.0,-0.0" style="stroke:black;fill:none;stroke-width:2.0;stroke-dasharray:-;stroke-linecap:round;stroke-linejoin:round;" /><path d="M 34.0 0.0 L 27.0 2.6999999999999997 L 27.0 -2.6999999999999997 Z" style="stroke:black;fill:black;stroke-linecap:butt;stroke-linejoin:miter;" /><path d="M 0.0,108.0 L 18.0,108.0 L 27.0,108.0" style="stroke:black;fill:none;stroke-width:2.0;stroke-dasharray:-;stroke-linecap:round;stroke-linejoin:round;" /><path d="M 34.0 108.0 L 27.0 110.7 L 27.0 105.3 Z" style="stroke:black;fill:black;stroke-linecap:butt;stroke-linejoin:miter;" /><path d="M 72.0,54.0 L 72.0,-36.0 L 198.0,-36.0 L 198.0,144.0 L 72.0,144.0 L 72.0,54.0" style="stroke:black;fill:none;stroke-width:2.0;stroke-dasharray:-;stroke-linecap:round;stroke-linejoin:round;" /><path d="M 270.0,-36.0 L 270.0,-63.0 L 378.0,-63.0 L 378.0,-9.0 L 270.0,-9.0 L 270.0,-36.0" style="stroke:black;fill:none;stroke-width:2.0;stroke-dasharray:-;stroke-linecap:round;stroke-linejoin:round;" /><path d="M 414.0,-36.0 L 414.0,-63.0 L 522.0,-63.0 L 522.0,-9.0 L 414.0,-9.0 L 414.0,-36.0" style="stroke:black;fill:none;stroke-width:2.0;stroke-dasharray:-;stroke-linecap:round;stroke-linejoin:round;" /><path d="M 270.0,108.0 L 270.0,81.0 L 378.0,81.0 L 378.0,135.0 L 270.0,135.0 L 270.0,108.0" style="stroke:black;fill:none;stroke-width:2.0;stroke-dasharray:-;stroke-linecap:round;stroke-linejoin:round;" /><path d="M 414.0,108.0 L 414.0,81.0 L 522.0,81.0 L 522.0,135.0 L 414.0,135.0 L 414.0,108.0" style="stroke:black;fill:none;stroke-width:2.0;stroke-dasharray:-;stroke-linecap:round;stroke-linejoin:round;" /><path d="M 576.0,36.0 L 576.0,-9.0 L 684.0,-9.0 L 684.0,81.0 L 576.0,81.0 L 576.0,36.0" style="stroke:black;fill:none;stroke-width:2.0;stroke-dasharray:-;stroke-linecap:round;stroke-linejoin:round;" /><path d="M 738.0,18.0 L 738.0,-9.0 L 846.0,-9.0 L 846.0,45.0 L 738.0,45.0 L 738.0,18.0" style="stroke:black;fill:none;stroke-width:2.0;stroke-dasharray:-;stroke-linecap:round;stroke-linejoin:round;" /><path d="M 432.0,180.0 L 432.0,153.0 L 522.0,153.0 L 522.0,207.0 L 432.0,207.0 L 432.0,180.0" style="stroke:black;fill:none;stroke-width:2.0;stroke-dasharray:-;stroke-linecap:round;stroke-linejoin:round;" /><path d="M 900.0,18.0 L 900.0,-9.0 L 1008.0,-9.0 L 1008.0,45.0 L 900.0,45.0 L 900.0,18.0" style="stroke:black;fill:none;stroke-width:2.0;stroke-dasharray:-;stroke-linecap:round;stroke-linejoin:round;" /><path d="M 1008.0,-9.0 L 1026.0,-9.0 L 1035.0,-9.0" style="stroke:black;fill:none;stroke-width:2.0;stroke-dasharray:-;stroke-linecap:round;stroke-linejoin:round;" /><path d="M 1042.0 -9.0 L 1035.0 -6.300000000000001 L 1035.0 -11.7 Z" style="stroke:black;fill:black;stroke-linecap:butt;stroke-linejoin:miter;" /><path d="M 36.0,-0.0 L 54.0,27.0 L 72.0,54.0" style="stroke:black;fill:none;stroke-width:2.0;stroke-dasharray:-;stroke-linecap:round;stroke-linejoin:round;" /><path d="M 36.0,108.0 L 54.0,81.0 L 72.0,54.0" style="stroke:black;fill:none;stroke-width:2.0;stroke-dasharray:-;stroke-linecap:round;stroke-linejoin:round;" /><path d="M 198.0,54.0 L 234.0,9.0 L 264.37774457201016,-28.972180715012726" style="stroke:black;fill:none;stroke-width:2.0;stroke-dasharray:-;stroke-linecap:round;stroke-linejoin:round;" /><path d="M 268.7506099048912 -34.43826238111394 L 266.4860903575064 -27.28550408661578 L 262.269398786514 -30.65885734340967 Z" style="stroke:black;fill:black;stroke-linecap:butt;stroke-linejoin:miter;" /><path d="M 198.0,54.0 L 234.0,81.0 L 262.8,102.60000000000001" style="stroke:black;fill:none;stroke-width:2.0;stroke-dasharray:-;stroke-linecap:round;stroke-linejoin:round;" /><path d="M 268.4 106.8 L 261.17999999999995 104.75999999999999 L 264.41999999999996 100.44 Z" style="stroke:black;fill:black;stroke-linecap:butt;stroke-linejoin:miter;" /><path d="M 378.0,-36.0 L 396.0,-36.0 L 405.0,-36.0" style="stroke:black;fill:none;stroke-width:2.0;stroke-dasharray:-;stroke-linecap:round;stroke-linejoin:round;" /><path d="M 412.0 -36.0 L 405.0 -33.3 L 405.0 -38.7 Z" style="stroke:black;fill:black;stroke-linecap:butt;stroke-linejoin:miter;" /><path d="M 378.0,108.0 L 396.0,108.0 L 405.0,108.0" style="stroke:black;fill:none;stroke-width:2.0;stroke-dasharray:-;stroke-linecap:round;stroke-linejoin:round;" /><path d="M 412.0 108.0 L 405.0 110.7 L 405.0 105.3 Z" style="stroke:black;fill:black;stroke-linecap:butt;stroke-linejoin:miter;" /><path d="M 522.0,-36.0 L 549.0,-22.5 L 567.9501552810008,-13.024922359499621" style="stroke:black;fill:none;stroke-width:2.0;stroke-dasharray:-;stroke-linecap:round;stroke-linejoin:round;" /><path d="M 574.2111456180002 -9.894427190999917 L 566.7426785731508 -10.609968943799847 L 569.1576319888505 -15.439875775199393 Z" style="stroke:black;fill:black;stroke-linecap:butt;stroke-linejoin:miter;" /><path d="M 522.0,108.0 L 549.0,94.5 L 567.9501552810008,85.02492235949963" style="stroke:black;fill:none;stroke-width:2.0;stroke-dasharray:-;stroke-linecap:round;stroke-linejoin:round;" /><path d="M 574.2111456180002 81.89442719099992 L 569.1576319888505 87.4398757751994 L 566.7426785731508 82.60996894379984 Z" style="stroke:black;fill:black;stroke-linecap:butt;stroke-linejoin:miter;" /><path d="M 324.0,-9.0 L 324.0,72.0 L 324.0,153.0" style="stroke:black;fill:none;stroke-width:2.0;stroke-dasharray:-;stroke-linecap:round;stroke-linejoin:round;" /><path d="M 324.0,153.0 L 378.0,166.5 L 423.268717498692,177.817179374673" style="stroke:black;fill:none;stroke-width:2.0;stroke-dasharray:-;stroke-linecap:round;stroke-linejoin:round;" /><path d="M 430.05971499970934 179.51492874992732 L 422.61387131109393 180.4365641250654 L 423.9235636862901 175.19779462428062 Z" style="stroke:black;fill:black;stroke-linecap:butt;stroke-linejoin:miter;" /><path d="M 522.0,180.0 L 738.0,166.5 L 954.0,153.0" style="stroke:black;fill:none;stroke-width:2.0;stroke-dasharray:-;stroke-linecap:round;stroke-linejoin:round;" /><path d="M 954.0,153.0 L 954.0,99.0 L 954.0,54.0" style="stroke:black;fill:none;stroke-width:2.0;stroke-dasharray:-;stroke-linecap:round;stroke-linejoin:round;" /><path d="M 954.0 47.0 L 956.7 54.0 L 951.3 54.0 Z" style="stroke:black;fill:black;stroke-linecap:butt;stroke-linejoin:miter;" /><path d="M 684.0,36.0 L 711.0,27.0 L 729.4618503175454,20.84604989415154" style="stroke:black;fill:none;stroke-width:2.0;stroke-dasharray:-;stroke-linecap:round;stroke-linejoin:round;" /><path d="M 736.102633403899 18.632455532033674 L 730.3156652857908 23.407494798887928 L 728.6080353492999 18.284604989415154 Z" style="stroke:black;fill:black;stroke-linecap:butt;stroke-linejoin:miter;" /><path d="M 846.0,18.0 L 873.0,18.0 L 891.0,18.0" style="stroke:black;fill:none;stroke-width:2.0;stroke-dasharray:-;stroke-linecap:round;stroke-linejoin:round;" /><path d="M 898.0 18.0 L 891.0 20.7 L 891.0 15.3 Z" style="stroke:black;fill:black;stroke-linecap:butt;stroke-linejoin:miter;" /><path d="M 1008.0,18.0 L 1008.0,4.5 L 1008.0,-0.0" style="stroke:black;fill:none;stroke-width:2.0;stroke-dasharray:-;stroke-linecap:round;stroke-linejoin:round;" /><path d="M 1008.0 -7.0 L 1010.7 0.0 L 1005.3 0.0 Z" style="stroke:black;fill:black;stroke-linecap:butt;stroke-linejoin:miter;" /><path d="M 792.0,45.0 L 792.0,58.5 L 792.0,72.0" style="stroke:black;fill:none;stroke-width:2.0;stroke-dasharray:-;stroke-linecap:round;stroke-linejoin:round;" /><path d="M 792.0,72.0 L 711.0,71.99999999999999 L 630.0,71.99999999999999" style="stroke:black;fill:none;stroke-width:2.0;stroke-dasharray:-;stroke-linecap:round;stroke-linejoin:round;" /><path d="M 630.0,71.99999999999999 L 630.0,76.5 L 630.0,72.0" style="stroke:black;fill:none;stroke-width:2.0;stroke-dasharray:-;stroke-linecap:round;stroke-linejoin:round;" /><path d="M 630.0 79.0 L 627.3 72.0 L 632.7 72.0 Z" style="stroke:black;fill:black;stroke-linecap:butt;stroke-linejoin:miter;" /><path d="M 792.0,-9.0 L 792.0,-85.5 L 792.0,-162.0" style="stroke:black;fill:none;stroke-width:2.0;stroke-dasharray:-;stroke-linecap:round;stroke-linejoin:round;" /><path d="M 792.0,-162.0 L 630.0,-162.00000000000003 L 468.0,-162.00000000000003" style="stroke:black;fill:none;stroke-width:2.0;stroke-dasharray:-;stroke-linecap:round;stroke-linejoin:round;" /><path d="M 468.0,-162.00000000000003 L 468.0,-112.50000000000001 L 468.0,-72.0" style="stroke:black;fill:none;stroke-width:2.0;stroke-dasharray:-;stroke-linecap:round;stroke-linejoin:round;" /><path d="M 468.0 -65.0 L 465.3 -72.0 L 470.7 -72.0 Z" style="stroke:black;fill:black;stroke-linecap:butt;stroke-linejoin:miter;" /><text x="-3.599999999999999" y="-18.0" dominant-baseline="central" fill="black" font-size="12" font-family="sans" text-anchor="end"><tspan x="-3.599999999999999" dy="12">ui_in[7:0]</tspan><tspan x="-3.599999999999999" dy="12">(Scale/Elements)</tspan></text><text x="-3.599999999999999" y="90.0" dominant-baseline="central" fill="black" font-size="12" font-family="sans" text-anchor="end"><tspan x="-3.599999999999999" dy="12">uio_in[7:0]</tspan><tspan x="-3.599999999999999" dy="12">(Scale/Elements)</tspan></text><text x="135.0" y="30.0" dominant-baseline="central" fill="black" font-size="12" font-family="sans" text-anchor="middle"><tspan x="135.0" dy="12">FSM, Config</tspan><tspan x="135.0" dy="12">and Metadata</tspan><tspan x="135.0" dy="12">Registers</tspan></text><text x="324.0" y="-54.0" dominant-baseline="central" fill="black" font-size="12" font-family="sans" text-anchor="middle"><tspan x="324.0" dy="12">Multiplier</tspan><tspan x="324.0" dy="12">Lane 0</tspan></text><text x="468.0" y="-54.0" dominant-baseline="central" fill="black" font-size="12" font-family="sans" text-anchor="middle"><tspan x="468.0" dy="12">Aligner</tspan><tspan x="468.0" dy="12">Lane 0</tspan></text><text x="324.0" y="90.0" dominant-baseline="central" fill="black" font-size="12" font-family="sans" text-anchor="middle"><tspan x="324.0" dy="12">Multiplier</tspan><tspan x="324.0" dy="12">Lane 1</tspan></text><text x="468.0" y="90.0" dominant-baseline="central" fill="black" font-size="12" font-family="sans" text-anchor="middle"><tspan x="468.0" dy="12">Aligner</tspan><tspan x="468.0" dy="12">Lane 1</tspan></text><text x="630.0" y="12.0" dominant-baseline="central" fill="black" font-size="12" font-family="sans" text-anchor="middle"><tspan x="630.0" dy="12">32-bit</tspan><tspan x="630.0" dy="12">Accumulator</tspan><tspan x="630.0" dy="12">Adder</tspan></text><text x="792.0" y="0.0" dominant-baseline="central" fill="black" font-size="12" font-family="sans" text-anchor="middle"><tspan x="792.0" dy="12">Accumulator</tspan><tspan x="792.0" dy="12">Register</tspan></text><text x="477.0" y="162.0" dominant-baseline="central" fill="black" font-size="12" font-family="sans" text-anchor="middle"><tspan x="477.0" dy="12">Sticky</tspan><tspan x="477.0" dy="12">Exceptions</tspan></text><text x="954.0" y="0.0" dominant-baseline="central" fill="black" font-size="12" font-family="sans" text-anchor="middle"><tspan x="954.0" dy="12">Output Mux and</tspan><tspan x="954.0" dy="12">Serializer</tspan></text><text x="1047.6000000000001" y="-21.0" dominant-baseline="central" fill="black" font-size="12" font-family="sans" text-anchor="start"><tspan x="1047.6000000000001" dy="12">uo_out[7:0]</tspan></text><text x="471.59999999999997" y="-170.4" dominant-baseline="central" fill="black" font-size="12" font-family="sans" text-anchor="end"><tspan x="471.59999999999997" dy="12">Shared Scaling Path</tspan></text><text x="633.6" y="63.60000000000001" dominant-baseline="central" fill="black" font-size="12" font-family="sans" text-anchor="start"><tspan x="633.6" dy="12">Feedback</tspan></text></svg>