<svg xmlns="http://www.w3.org/2000/svg" width="866" height="42" viewBox="0 0 866 42" class="WaveDrom"><g transform="translate(0.5,0.5)" text-anchor="middle" font-size="14" font-family="sans-serif" font-weight="normal"><g transform="translate(4,14)"><g stroke="black" stroke-width="1" stroke-linecap="round"><line x2="857"/><line y2="26"/><line x2="857" y1="26" y2="26"/><line x1="857" x2="857" y2="26"/><line x1="750" x2="750" y2="3"/><line x1="750" x2="750" y1="26" y2="23"/><line x1="643" x2="643" y2="3"/><line x1="643" x2="643" y1="26" y2="23"/><line x1="536" x2="536" y2="26"/><line x1="429" x2="429" y2="3"/><line x1="429" x2="429" y1="26" y2="23"/><line x1="321" x2="321" y2="26"/><line x1="214" x2="214" y2="26"/><line x1="107" x2="107" y2="26"/></g><g><g/><g transform="translate(54,-9)"><g transform="translate(750)"><text y="6">0</text></g><g transform="translate(536)"><text y="6">2</text></g><g transform="translate(429)"><text y="6">3</text></g><g transform="translate(321)"><text y="6">4</text></g><g transform="translate(214)"><text y="6">5</text></g><g transform="translate(107)"><text y="6">6</text></g><g transform="translate(0)"><text y="6">7</text></g></g><g transform="translate(54,13)"><g transform="translate(643)"><text y="6"><tspan>NBM Offset B</tspan></text></g><g transform="translate(375)"><text y="6"><tspan>Rounding Mode</tspan></text></g><g transform="translate(214)"><text y="6"><tspan>Overflow Mode</tspan></text></g><g transform="translate(107)"><text y="6"><tspan>Packed Mode</tspan></text></g><g transform="translate(0)"><text y="6"><tspan>MX+ Enable</tspan></text></g></g><g transform="translate(54,33)"/></g></g></g></svg>